<svg xmlns="http://www.w3.org/2000/svg" version="1.1" viewBox="1.6806228160858154 2.2107088565826416 616.7194213867188 870.4908447265625" width="620.00" height="875.00">
<g stroke-width="2.00" fill="none" stroke-linecap="butt">
<path stroke="#433e30" d="&#10;  M 99.50 496.13&#10;  Q 102.90 502.61 107.46 507.51&#10;  Q 114.15 514.70 120.77 521.96&#10;  C 124.35 525.89 129.15 529.60 133.03 533.84&#10;  C 136.78 537.96 140.32 540.65 144.49 543.73&#10;  Q 146.44 545.17 148.72 547.61&#10;  Q 150.69 549.74 152.96 551.54&#10;  Q 158.17 555.69 159.63 556.97&#10;  C 163.16 560.04 167.13 562.55 170.60 565.59&#10;  Q 175.39 569.79 180.69 573.34&#10;  C 184.45 575.85 187.77 578.88 191.54 581.47&#10;  C 199.38 586.88 207.10 592.47 215.13 597.61&#10;  Q 218.27 599.62 222.67 604.45" data-c-stroke="433e30"/>
<path stroke="#433e30" d="&#10;  M 390.94 602.40&#10;  Q 394.69 600.79 398.93 598.94&#10;  C 409.77 594.21 420.16 585.08 429.57 576.81&#10;  Q 430.48 576.00 430.50 575.53" data-c-stroke="433e30"/>
<path stroke="#8e4222" d="&#10;  M 430.50 575.53&#10;  Q 430.66 575.80 430.95 575.91&#10;  A 0.71 0.71 0.0 0 0 431.83 575.52&#10;  L 433.23 572.29&#10;  A 1.03 1.02 4.5 0 1 433.94 571.69&#10;  Q 442.80 569.58 448.61 562.83&#10;  Q 450.12 561.07 452.05 559.90&#10;  Q 457.41 556.63 461.24 551.66&#10;  Q 462.79 549.66 464.73 548.33&#10;  C 470.44 544.39 474.57 538.90 479.28 534.96&#10;  C 484.13 530.90 488.49 528.02 492.34 522.17" data-c-stroke="8e4222"/>
<path stroke="#988965" d="&#10;  M 492.34 522.17&#10;  C 494.29 520.53 496.08 519.49 497.66 517.36&#10;  Q 501.95 511.53 507.62 506.99&#10;  Q 509.47 505.51 510.79 503.43&#10;  Q 514.43 497.70 519.53 493.28&#10;  Q 521.65 491.45 523.67 485.72" data-c-stroke="988965"/>
<path stroke="#8e4222" d="&#10;  M 523.67 485.72&#10;  Q 523.94 486.69 524.87 486.39&#10;  Q 525.36 486.24 525.74 485.64&#10;  C 527.95 482.14 530.79 479.39 532.69 475.83&#10;  Q 537.67 466.51 543.68 457.82&#10;  Q 546.30 454.03 548.23 449.86&#10;  C 552.14 441.43 557.45 433.43 560.75 425.10&#10;  C 566.77 409.88 570.25 397.80 574.90 380.66&#10;  Q 577.97 369.34 579.42 361.20&#10;  Q 588.92 307.92 576.95 254.76&#10;  Q 575.23 247.09 571.66 234.28&#10;  C 568.07 221.41 562.52 208.92 557.51 196.36&#10;  C 553.88 187.25 548.33 178.99 543.52 170.42&#10;  C 540.88 165.74 537.09 160.84 534.29 155.70&#10;  C 532.65 152.70 530.82 150.50 528.71 148.04&#10;  Q 526.74 145.74 524.53 142.32&#10;  C 522.00 138.40 518.67 134.87 515.76 131.30&#10;  Q 513.53 128.55 510.09 124.91&#10;  Q 490.72 104.39 470.27 89.11&#10;  C 467.70 87.19 464.08 85.14 461.15 82.76&#10;  C 454.42 77.29 446.89 73.13 439.43 68.77&#10;  C 433.32 65.19 426.37 62.35 419.81 59.01&#10;  Q 410.39 54.22 404.89 52.17&#10;  Q 391.56 47.18 377.73 43.78&#10;  Q 357.17 38.73 336.16 36.27&#10;  C 331.23 35.69 325.67 35.67 320.39 35.27&#10;  Q 312.48 34.67 308.58 34.65&#10;  Q 266.49 34.43 228.74 45.99&#10;  Q 211.04 51.42 190.37 61.30&#10;  C 181.56 65.51 172.31 71.15 163.26 76.17&#10;  C 158.26 78.95 154.16 83.08 149.21 86.31&#10;  Q 144.35 89.48 141.15 92.12&#10;  C 136.26 96.15 131.02 99.57 126.48 103.99&#10;  Q 123.44 106.96 120.31 109.82&#10;  C 114.44 115.19 109.65 120.52 104.39 126.06&#10;  C 96.17 134.74 89.02 145.19 82.21 155.01&#10;  C 78.82 159.90 75.76 166.15 72.20 171.54&#10;  Q 69.07 176.28 66.63 180.97&#10;  C 62.88 188.19 58.61 195.60 55.44 204.07&#10;  Q 53.34 209.67 50.09 217.72&#10;  C 45.66 228.66 43.43 240.18 40.86 250.94&#10;  C 30.98 292.33 30.95 333.98 40.58 375.50&#10;  C 42.43 383.47 43.93 391.16 46.65 398.99&#10;  C 49.61 407.49 52.19 416.41 55.76 424.36&#10;  Q 61.12 436.34 67.02 448.06&#10;  C 69.75 453.49 73.49 458.88 76.72 464.31&#10;  C 82.61 474.19 89.09 482.61 95.70 491.56&#10;  Q 97.17 493.56 99.50 496.13" data-c-stroke="8e4222"/>
<path stroke="#e58945" d="&#10;  M 523.67 485.72&#10;  Q 526.47 479.74 526.65 473.13&#10;  Q 526.78 468.62 524.94 462.07&#10;  Q 522.92 454.86 520.99 451.53&#10;  Q 510.14 432.89 491.51 426.27&#10;  Q 478.47 421.63 462.52 424.51&#10;  Q 459.71 425.02 450.79 428.12&#10;  Q 447.36 429.30 444.48 431.44&#10;  C 439.15 435.38 433.22 439.44 429.33 444.38&#10;  C 416.42 460.73 416.08 485.06 427.08 502.48&#10;  Q 428.86 505.30 434.09 511.25&#10;  Q 437.74 515.41 441.64 517.89&#10;  C 449.36 522.78 458.59 526.84 467.82 527.34&#10;  C 476.63 527.81 482.63 525.80 492.34 522.17" data-c-stroke="e58945"/>
<path stroke="#8f3e0f" d="&#10;  M 430.50 575.53&#10;  C 431.35 572.11 429.96 570.44 426.46 570.58&#10;  Q 422.48 570.73 418.49 570.78&#10;  C 413.04 570.84 406.24 572.20 400.99 571.46&#10;  C 396.96 570.89 388.10 565.73 389.04 560.14&#10;  Q 389.13 559.63 389.64 559.71&#10;  Q 395.17 560.64 404.74 560.42&#10;  Q 415.47 560.17 421.68 552.95&#10;  C 425.07 549.01 422.35 544.67 417.97 543.11&#10;  Q 406.80 539.13 396.50 533.32&#10;  Q 392.10 530.83 389.10 526.86&#10;  A 1.26 1.26 0.0 0 1 390.34 524.86&#10;  Q 398.67 526.41 407.11 524.03&#10;  C 410.73 523.00 412.95 519.96 411.98 516.08&#10;  Q 410.83 511.49 408.90 509.36&#10;  Q 404.23 504.18 392.63 494.78&#10;  C 389.34 492.12 386.58 489.17 383.63 486.24&#10;  A 0.93 0.92 24.8 0 1 383.35 485.49&#10;  Q 383.44 484.49 384.77 484.47&#10;  Q 395.11 484.32 405.47 485.77&#10;  A 0.86 0.86 0.0 0 0 406.29 485.41&#10;  Q 407.45 483.77 406.18 481.99&#10;  Q 402.76 477.22 397.82 472.23&#10;  C 395.46 469.85 393.86 466.87 391.62 464.27&#10;  C 388.96 461.19 384.06 459.34 381.81 456.19&#10;  Q 376.97 449.43 373.26 442.01&#10;  A 1.40 1.40 0.0 0 0 370.73 442.06&#10;  C 368.83 446.22 366.59 449.78 363.25 453.29&#10;  Q 356.10 460.80 348.96 468.31&#10;  C 344.85 472.64 338.11 479.97 339.72 485.76&#10;  Q 339.84 486.21 340.29 486.36&#10;  Q 342.95 487.21 345.76 487.27&#10;  Q 353.69 487.45 361.71 488.24&#10;  Q 362.26 488.30 361.84 488.65&#10;  Q 354.53 494.70 347.88 501.52&#10;  Q 346.70 502.72 344.36 504.03&#10;  Q 341.94 505.38 339.81 507.72" data-c-stroke="8f3e0f"/>
<path stroke="#8f3e0f" d="&#10;  M 259.17 553.27&#10;  Q 257.18 551.30 257.55 548.37&#10;  Q 257.61 547.92 257.96 547.62&#10;  Q 260.44 545.56 259.58 542.19&#10;  Q 259.46 541.68 258.93 541.67&#10;  C 252.85 541.49 239.74 540.52 236.94 534.04&#10;  A 0.70 0.70 0.0 0 1 237.79 533.09&#10;  Q 246.38 535.64 254.62 536.98&#10;  C 257.03 537.36 258.96 537.02 261.07 536.10&#10;  A 0.72 0.72 0.0 0 0 261.37 535.01&#10;  C 258.46 531.11 252.56 524.88 247.26 525.08&#10;  Q 244.16 525.20 239.03 523.27&#10;  C 236.34 522.26 233.57 520.39 230.77 519.03&#10;  C 228.67 518.01 227.97 516.40 227.32 514.34&#10;  A 0.58 0.57 77.9 0 1 227.80 513.59&#10;  Q 231.13 513.18 234.26 514.42&#10;  A 1.21 1.17 -41.8 0 0 235.04 514.45&#10;  L 247.88 510.44&#10;  A 0.83 0.82 51.3 0 1 248.55 510.52&#10;  L 251.82 512.48&#10;  A 0.57 0.54 57.7 0 0 252.14 512.56&#10;  Q 255.71 512.47 259.25 512.92&#10;  A 0.45 0.45 0.0 0 0 259.63 512.16&#10;  Q 254.38 506.84 248.17 502.72&#10;  C 245.26 500.79 241.21 499.05 238.42 495.83&#10;  Q 232.30 488.76 229.23 485.29&#10;  Q 227.19 482.99 226.29 479.83&#10;  A 0.92 0.92 0.0 0 1 227.43 478.70&#10;  Q 230.97 479.76 234.78 480.57&#10;  C 241.48 481.99 248.87 481.59 255.80 481.43&#10;  A 0.45 0.44 60.8 0 0 256.03 480.61&#10;  Q 248.63 475.78 241.33 470.40&#10;  C 238.37 468.23 237.32 467.55 236.53 463.74&#10;  Q 235.89 460.71 233.19 458.81&#10;  Q 228.28 455.36 224.00 451.19&#10;  C 220.24 447.53 218.29 442.71 215.80 438.05&#10;  C 214.64 435.89 214.17 433.76 213.62 431.42&#10;  Q 213.48 430.83 213.05 431.26&#10;  Q 211.04 433.29 209.27 437.00&#10;  Q 206.89 441.99 202.41 446.72&#10;  Q 199.63 449.65 198.08 452.22&#10;  Q 194.57 458.04 190.97 463.86&#10;  Q 190.68 464.33 190.23 464.00&#10;  Q 187.83 462.22 187.40 459.23&#10;  A 1.05 1.04 -34.8 0 0 185.45 458.88&#10;  Q 183.08 463.16 182.28 466.99&#10;  Q 181.76 469.48 179.40 469.62&#10;  Q 178.90 469.65 178.67 470.09&#10;  C 176.26 474.74 175.06 480.62 167.90 475.59&#10;  A 1.35 1.35 0.0 0 1 167.77 473.49&#10;  L 171.96 469.67&#10;  A 1.60 1.60 0.0 0 0 171.41 466.98&#10;  Q 166.71 465.33 162.33 464.43&#10;  C 159.06 463.76 155.69 460.78 152.78 459.25&#10;  Q 150.67 458.14 148.58 457.08&#10;  A 0.74 0.73 24.7 0 1 148.23 456.15&#10;  Q 148.43 455.61 149.26 455.62&#10;  Q 159.34 455.83 168.70 451.73&#10;  A 0.61 0.61 0.0 0 0 168.83 450.68&#10;  L 166.76 449.09&#10;  A 1.48 1.48 0.0 0 1 166.49 447.00&#10;  Q 168.86 443.94 168.83 439.95&#10;  A 0.82 0.82 0.0 0 0 167.33 439.51&#10;  L 165.59 442.17&#10;  Q 165.28 442.64 164.73 442.65&#10;  Q 160.19 442.75 156.94 439.65&#10;  Q 156.56 439.28 156.78 438.81&#10;  L 158.36 435.45&#10;  Q 158.55 435.06 158.40 434.65&#10;  Q 156.96 430.63 153.54 432.38&#10;  Q 153.10 432.61 152.62 432.44&#10;  Q 150.02 431.55 149.45 430.54&#10;  Q 147.18 426.52 143.98 423.20&#10;  C 142.15 421.30 141.93 419.58 142.79 417.23&#10;  Q 142.97 416.73 142.46 416.57&#10;  C 139.28 415.57 137.80 412.84 135.47 410.62&#10;  Q 135.09 410.26 134.64 410.52&#10;  Q 129.65 413.38 126.99 418.41&#10;  C 126.05 420.19 126.51 421.86 126.41 423.84&#10;  A 1.23 1.21 69.8 0 1 126.03 424.68&#10;  C 119.21 431.11 111.67 434.68 105.41 439.97&#10;  C 103.36 441.70 101.69 442.79 99.27 443.02&#10;  A 0.68 0.67 59.4 0 0 98.96 444.25&#10;  Q 106.04 449.08 113.00 452.72&#10;  C 115.70 454.13 118.56 453.16 121.45 454.01&#10;  Q 123.06 454.49 124.85 454.95&#10;  A 0.74 0.73 47.5 0 1 124.79 456.39&#10;  L 119.88 457.18&#10;  A 0.79 0.78 -27.1 0 1 119.24 456.98&#10;  Q 116.11 453.99 113.34 457.60&#10;  Q 103.93 469.85 90.88 478.04&#10;  A 0.93 0.93 0.0 0 0 91.00 479.68&#10;  C 99.17 483.31 106.95 482.19 115.43 480.30&#10;  A 0.40 0.40 0.0 0 1 115.77 480.99&#10;  C 112.58 483.68 110.53 485.86 107.20 489.64&#10;  Q 103.84 493.46 99.50 496.13" data-c-stroke="8f3e0f"/>
<path stroke="#8f3e0f" d="&#10;  M 256.09 561.84&#10;  Q 244.28 560.49 236.99 557.49&#10;  Q 232.02 555.45 230.07 558.87&#10;  Q 229.77 559.40 229.85 560.02&#10;  L 230.80 566.86&#10;  A 0.45 0.44 25.8 0 0 230.88 567.08&#10;  Q 233.37 570.66 236.58 571.44&#10;  Q 242.51 572.89 248.48 574.31" data-c-stroke="8f3e0f"/>
<path stroke="#8f3e0f" d="&#10;  M 345.33 532.41&#10;  Q 349.21 532.51 352.81 531.69&#10;  C 353.80 531.46 355.89 531.66 356.47 530.15&#10;  A 1.77 1.77 0.0 0 0 355.67 527.98&#10;  L 347.80 523.63&#10;  Q 347.42 523.42 347.33 522.99&#10;  Q 346.26 517.95 341.50 517.13" data-c-stroke="8f3e0f"/>
<path stroke="#8f3e0f" d="&#10;  M 173.39 493.07&#10;  Q 177.61 497.37 182.89 496.28&#10;  Q 186.13 495.61 189.48 493.95&#10;  C 194.61 491.40 196.68 485.43 198.23 479.87&#10;  Q 198.39 479.30 197.80 479.35&#10;  Q 185.76 480.32 182.25 480.02&#10;  Q 179.41 479.78 177.20 480.19&#10;  Q 176.29 480.37 173.16 482.12&#10;  C 167.80 485.11 160.06 481.99 154.21 480.74&#10;  Q 153.45 480.58 153.81 481.28&#10;  L 160.15 493.49&#10;  Q 160.42 494.01 160.96 494.26&#10;  Q 167.25 497.25 172.54 493.02&#10;  Q 172.99 492.66 173.39 493.07" data-c-stroke="8f3e0f"/>
<path stroke="#8f3e0f" d="&#10;  M 155.41 515.25&#10;  Q 164.67 522.19 176.29 522.68&#10;  Q 177.02 522.71 176.84 522.00&#10;  L 176.60 521.03&#10;  A 0.77 0.77 0.0 0 0 175.78 520.45&#10;  Q 169.72 521.01 164.12 518.97&#10;  C 161.40 517.98 158.64 515.68 155.71 514.68&#10;  Q 153.75 514.01 155.41 515.25" data-c-stroke="8f3e0f"/>
<path stroke="#8f3e0f" d="&#10;  M 192.08 519.55&#10;  C 194.26 514.14 186.05 513.71 183.35 514.81&#10;  A 1.05 1.03 -7.6 0 0 182.71 515.63&#10;  C 182.43 517.67 181.35 521.15 182.23 522.93&#10;  Q 183.11 524.72 185.02 524.66&#10;  Q 190.09 524.49 192.08 519.55" data-c-stroke="8f3e0f"/>
<path stroke="#8f3e0f" d="&#10;  M 149.45 545.65&#10;  A 0.94 0.93 -56.2 0 0 149.68 546.83&#10;  L 153.75 550.14&#10;  Q 154.12 550.45 154.54 550.21&#10;  Q 171.05 540.84 189.15 535.09&#10;  A 0.36 0.36 0.0 0 0 189.01 534.39&#10;  C 184.69 534.78 181.01 534.47 176.40 533.47&#10;  Q 165.14 531.02 153.74 529.23&#10;  A 0.73 0.73 0.0 0 0 152.90 529.99&#10;  Q 153.37 538.39 149.45 545.65" data-c-stroke="8f3e0f"/>
<path stroke="#8f3e0f" d="&#10;  M 173.22 566.08&#10;  Q 175.32 567.73 177.26 568.70&#10;  C 180.55 570.36 187.23 569.36 190.96 569.01&#10;  Q 191.51 568.96 191.47 568.41&#10;  Q 191.25 565.19 192.53 562.37&#10;  Q 192.69 562.01 192.69 561.68&#10;  Q 192.69 561.19 192.61 560.95&#10;  A 0.90 0.90 0.0 0 0 191.34 560.39&#10;  Q 188.63 561.71 185.84 562.62&#10;  C 182.19 563.81 177.51 564.11 173.53 564.83&#10;  Q 171.99 565.12 173.22 566.08" data-c-stroke="8f3e0f"/>
<path stroke="#8f3e0f" d="&#10;  M 398.73 574.94&#10;  L 394.77 573.55&#10;  A 0.68 0.68 0.0 0 0 393.90 573.97&#10;  L 393.85 574.12&#10;  A 3.20 2.77 -70.7 0 0 395.40 578.05&#10;  L 395.42 578.06&#10;  A 3.20 2.77 -70.7 0 0 399.09 575.96&#10;  L 399.15 575.80&#10;  A 0.68 0.68 0.0 0 0 398.73 574.94" data-c-stroke="8f3e0f"/>
<path stroke="#786844" d="&#10;  M 75.24 832.10&#10;  L 74.79 832.28&#10;  A 0.39 0.39 0.0 0 0 74.93 833.04&#10;  Q 75.94 833.04 75.74 832.35&#10;  A 0.39 0.38 71.3 0 0 75.24 832.10" data-c-stroke="786844"/>
</g>
<path fill="#414242" d="&#10;  M 27.18 190.05&#10;  Q 29.10 184.29 30.14 182.39&#10;  Q 36.32 170.98 42.28 159.45&#10;  C 47.12 150.07 53.77 141.46 59.27 132.28&#10;  C 61.82 128.02 65.70 125.05 68.28 120.46&#10;  C 70.55 116.43 74.08 114.87 76.53 111.17&#10;  Q 80.49 105.17 85.72 100.28&#10;  Q 88.69 97.50 91.41 94.34&#10;  C 94.88 90.32 99.42 86.84 102.67 83.42&#10;  C 105.06 80.90 106.81 78.68 109.92 76.76&#10;  C 114.63 73.86 118.55 69.34 122.12 66.56&#10;  Q 138.05 54.14 146.80 49.11&#10;  Q 157.46 42.99 168.04 36.70&#10;  C 171.28 34.77 174.84 34.28 178.09 32.46&#10;  C 192.58 24.35 207.00 20.27 221.98 15.33&#10;  C 234.66 11.16 245.91 8.70 258.37 6.88&#10;  Q 267.26 5.58 275.60 4.46&#10;  Q 306.28 0.32 335.25 3.80&#10;  Q 338.22 4.16 340.08 4.30&#10;  C 344.52 4.64 348.54 5.92 352.92 6.42&#10;  C 366.25 7.94 379.41 10.82 392.30 14.49&#10;  Q 393.98 14.97 398.87 17.02&#10;  C 401.85 18.27 404.94 18.75 407.85 20.03&#10;  C 412.71 22.16 418.30 23.19 422.61 24.99&#10;  Q 428.88 27.62 434.91 30.72&#10;  C 440.63 33.67 446.80 36.23 452.60 39.38&#10;  C 456.47 41.48 460.94 45.37 465.92 47.50&#10;  C 470.14 49.31 473.15 52.34 477.01 54.67&#10;  C 482.10 57.74 486.11 61.59 491.12 64.69&#10;  Q 493.64 66.25 495.80 68.46&#10;  Q 500.08 72.86 505.20 76.21&#10;  C 509.87 79.27 512.66 83.82 517.21 87.20&#10;  Q 520.86 89.91 523.27 93.78&#10;  C 526.01 98.17 530.33 99.54 533.25 103.70&#10;  C 534.79 105.91 535.94 107.81 538.05 109.68&#10;  Q 544.10 115.01 548.10 122.12&#10;  C 549.56 124.73 553.74 127.73 555.85 131.01&#10;  Q 561.69 140.14 567.83 149.05&#10;  C 572.07 155.21 574.82 162.39 579.20 168.79&#10;  Q 581.53 172.21 585.11 181.06&#10;  Q 586.42 184.32 588.94 188.63&#10;  Q 593.26 196.03 595.35 204.34&#10;  C 597.14 211.47 600.41 218.10 601.99 224.51&#10;  Q 604.78 235.80 607.65 247.07&#10;  Q 610.42 257.98 611.57 266.67&#10;  Q 615.70 298.07 614.50 329.81&#10;  C 614.31 334.84 613.65 340.25 613.20 345.50&#10;  Q 611.30 367.54 606.20 386.48&#10;  Q 604.52 392.72 603.49 396.96&#10;  C 600.90 407.66 597.50 417.84 593.20 427.97&#10;  Q 592.15 430.47 591.53 432.52&#10;  C 590.88 434.67 590.50 436.59 589.47 438.63&#10;  Q 577.84 461.50 572.67 470.92&#10;  Q 570.45 474.96 566.61 480.34&#10;  Q 564.70 483.00 562.10 487.70&#10;  Q 558.95 493.42 554.45 498.19&#10;  C 551.39 501.44 549.81 505.37 546.84 508.78&#10;  Q 543.80 512.28 542.11 514.57&#10;  C 539.63 517.95 536.55 520.77 534.18 524.09&#10;  C 531.38 528.01 528.59 530.41 525.09 533.63&#10;  C 521.78 536.66 519.43 540.92 515.81 544.16&#10;  C 510.64 548.78 506.59 553.76 501.51 558.23&#10;  Q 499.18 560.28 495.75 564.02&#10;  C 492.79 567.26 488.83 570.04 486.12 572.69&#10;  Q 483.37 575.37 480.64 578.06&#10;  C 478.07 580.59 472.96 584.42 469.61 588.13&#10;  Q 467.03 590.98 465.44 592.42&#10;  C 454.46 602.36 445.94 612.66 436.04 622.66&#10;  C 432.38 626.36 430.01 631.08 425.65 634.66&#10;  Q 422.84 636.97 421.41 638.89&#10;  C 418.82 642.39 416.87 646.02 413.36 648.86&#10;  Q 409.27 652.17 407.06 656.95&#10;  C 404.95 661.50 400.08 665.52 396.93 669.51&#10;  Q 396.00 670.69 392.23 674.65&#10;  C 389.43 677.59 387.94 681.15 385.47 684.03&#10;  C 381.76 688.37 378.94 693.10 375.16 697.40&#10;  Q 370.63 702.54 367.00 708.37&#10;  Q 365.47 710.83 363.11 713.27&#10;  C 358.32 718.23 356.30 724.35 352.09 729.36&#10;  C 349.13 732.88 347.03 736.23 344.11 739.38&#10;  C 342.10 741.55 341.52 744.05 340.28 746.02&#10;  Q 338.90 748.24 333.78 754.23&#10;  C 330.82 757.70 329.47 762.12 326.56 765.86&#10;  Q 322.50 771.07 322.47 771.11&#10;  Q 314.18 782.78 311.48 785.97&#10;  Q 310.26 787.41 306.61 788.98&#10;  Q 306.15 789.18 305.75 788.89&#10;  Q 304.08 787.72 303.31 786.19&#10;  C 301.41 782.43 299.28 780.22 296.72 777.17&#10;  Q 289.38 768.41 283.80 758.46&#10;  C 281.26 753.93 277.42 751.08 275.08 746.20&#10;  C 272.79 741.46 268.59 738.92 266.99 736.02&#10;  C 261.91 726.77 255.60 718.82 249.49 710.06&#10;  Q 245.92 704.92 241.80 700.19&#10;  C 238.62 696.54 236.79 692.24 233.46 688.98&#10;  Q 231.63 687.19 229.93 685.28&#10;  C 227.46 682.51 226.86 678.63 224.30 675.96&#10;  Q 215.31 666.54 211.35 660.66&#10;  Q 206.81 653.91 202.56 649.62&#10;  Q 200.27 647.32 198.61 644.80&#10;  Q 194.45 638.50 188.70 633.62&#10;  C 185.06 630.53 183.33 626.06 179.67 622.72&#10;  C 174.92 618.37 172.11 613.23 166.95 609.19&#10;  C 163.05 606.13 160.65 602.64 157.72 599.11&#10;  Q 156.08 597.14 152.92 594.77&#10;  C 148.54 591.50 145.03 586.66 141.54 583.69&#10;  C 138.33 580.94 135.30 578.86 132.52 575.40&#10;  Q 128.76 570.73 123.90 567.20&#10;  Q 121.21 565.24 119.31 563.08&#10;  Q 114.05 557.11 107.78 552.22&#10;  C 105.00 550.05 102.48 545.57 99.67 542.92&#10;  C 97.71 541.07 95.76 539.61 94.06 537.44&#10;  C 90.36 532.72 85.67 528.96 82.24 524.40&#10;  Q 78.83 519.87 75.32 515.43&#10;  C 72.78 512.23 68.10 508.11 65.41 503.37&#10;  C 63.58 500.13 61.73 498.25 59.35 495.75&#10;  C 55.94 492.18 55.21 488.01 52.32 484.20&#10;  Q 45.66 475.43 43.41 471.05&#10;  C 38.59 461.67 33.11 451.80 29.11 442.90&#10;  Q 23.93 431.41 19.65 419.56&#10;  C 15.37 407.74 12.34 394.40 9.19 381.64&#10;  C 4.71 363.47 2.72 345.54 2.44 326.98&#10;  C 2.35 321.10 1.26 312.21 1.86 304.74&#10;  Q 2.60 295.54 2.65 294.24&#10;  Q 3.11 281.53 3.76 275.75&#10;  Q 4.31 270.94 6.48 258.56&#10;  C 8.90 244.79 12.93 231.12 16.52 217.52&#10;  C 18.62 209.57 23.94 199.76 27.18 190.05&#10;  Z&#10;  M 99.50 496.13&#10;  Q 102.90 502.61 107.46 507.51&#10;  Q 114.15 514.70 120.77 521.96&#10;  C 124.35 525.89 129.15 529.60 133.03 533.84&#10;  C 136.78 537.96 140.32 540.65 144.49 543.73&#10;  Q 146.44 545.17 148.72 547.61&#10;  Q 150.69 549.74 152.96 551.54&#10;  Q 158.17 555.69 159.63 556.97&#10;  C 163.16 560.04 167.13 562.55 170.60 565.59&#10;  Q 175.39 569.79 180.69 573.34&#10;  C 184.45 575.85 187.77 578.88 191.54 581.47&#10;  C 199.38 586.88 207.10 592.47 215.13 597.61&#10;  Q 218.27 599.62 222.67 604.45&#10;  Q 222.76 605.40 225.63 605.83&#10;  Q 227.48 606.10 228.75 606.52&#10;  Q 233.25 608.00 236.10 608.36&#10;  C 249.11 610.02 267.04 609.59 276.44 609.81&#10;  Q 298.10 610.32 319.75 609.98&#10;  C 335.50 609.72 353.68 610.22 366.62 609.38&#10;  Q 375.72 608.79 386.73 604.97&#10;  Q 388.18 604.47 390.94 602.40&#10;  Q 394.69 600.79 398.93 598.94&#10;  C 409.77 594.21 420.16 585.08 429.57 576.81&#10;  Q 430.48 576.00 430.50 575.53&#10;  Q 430.66 575.80 430.95 575.91&#10;  A 0.71 0.71 0.0 0 0 431.83 575.52&#10;  L 433.23 572.29&#10;  A 1.03 1.02 4.5 0 1 433.94 571.69&#10;  Q 442.80 569.58 448.61 562.83&#10;  Q 450.12 561.07 452.05 559.90&#10;  Q 457.41 556.63 461.24 551.66&#10;  Q 462.79 549.66 464.73 548.33&#10;  C 470.44 544.39 474.57 538.90 479.28 534.96&#10;  C 484.13 530.90 488.49 528.02 492.34 522.17&#10;  C 494.29 520.53 496.08 519.49 497.66 517.36&#10;  Q 501.95 511.53 507.62 506.99&#10;  Q 509.47 505.51 510.79 503.43&#10;  Q 514.43 497.70 519.53 493.28&#10;  Q 521.65 491.45 523.67 485.72&#10;  Q 523.94 486.69 524.87 486.39&#10;  Q 525.36 486.24 525.74 485.64&#10;  C 527.95 482.14 530.79 479.39 532.69 475.83&#10;  Q 537.67 466.51 543.68 457.82&#10;  Q 546.30 454.03 548.23 449.86&#10;  C 552.14 441.43 557.45 433.43 560.75 425.10&#10;  C 566.77 409.88 570.25 397.80 574.90 380.66&#10;  Q 577.97 369.34 579.42 361.20&#10;  Q 588.92 307.92 576.95 254.76&#10;  Q 575.23 247.09 571.66 234.28&#10;  C 568.07 221.41 562.52 208.92 557.51 196.36&#10;  C 553.88 187.25 548.33 178.99 543.52 170.42&#10;  C 540.88 165.74 537.09 160.84 534.29 155.70&#10;  C 532.65 152.70 530.82 150.50 528.71 148.04&#10;  Q 526.74 145.74 524.53 142.32&#10;  C 522.00 138.40 518.67 134.87 515.76 131.30&#10;  Q 513.53 128.55 510.09 124.91&#10;  Q 490.72 104.39 470.27 89.11&#10;  C 467.70 87.19 464.08 85.14 461.15 82.76&#10;  C 454.42 77.29 446.89 73.13 439.43 68.77&#10;  C 433.32 65.19 426.37 62.35 419.81 59.01&#10;  Q 410.39 54.22 404.89 52.17&#10;  Q 391.56 47.18 377.73 43.78&#10;  Q 357.17 38.73 336.16 36.27&#10;  C 331.23 35.69 325.67 35.67 320.39 35.27&#10;  Q 312.48 34.67 308.58 34.65&#10;  Q 266.49 34.43 228.74 45.99&#10;  Q 211.04 51.42 190.37 61.30&#10;  C 181.56 65.51 172.31 71.15 163.26 76.17&#10;  C 158.26 78.95 154.16 83.08 149.21 86.31&#10;  Q 144.35 89.48 141.15 92.12&#10;  C 136.26 96.15 131.02 99.57 126.48 103.99&#10;  Q 123.44 106.96 120.31 109.82&#10;  C 114.44 115.19 109.65 120.52 104.39 126.06&#10;  C 96.17 134.74 89.02 145.19 82.21 155.01&#10;  C 78.82 159.90 75.76 166.15 72.20 171.54&#10;  Q 69.07 176.28 66.63 180.97&#10;  C 62.88 188.19 58.61 195.60 55.44 204.07&#10;  Q 53.34 209.67 50.09 217.72&#10;  C 45.66 228.66 43.43 240.18 40.86 250.94&#10;  C 30.98 292.33 30.95 333.98 40.58 375.50&#10;  C 42.43 383.47 43.93 391.16 46.65 398.99&#10;  C 49.61 407.49 52.19 416.41 55.76 424.36&#10;  Q 61.12 436.34 67.02 448.06&#10;  C 69.75 453.49 73.49 458.88 76.72 464.31&#10;  C 82.61 474.19 89.09 482.61 95.70 491.56&#10;  Q 97.17 493.56 99.50 496.13&#10;  Z" data-c-fill="414242"/>
<path fill="#f1c232" d="&#10;  M 523.67 485.72&#10;  Q 526.47 479.74 526.65 473.13&#10;  Q 526.78 468.62 524.94 462.07&#10;  Q 522.92 454.86 520.99 451.53&#10;  Q 510.14 432.89 491.51 426.27&#10;  Q 478.47 421.63 462.52 424.51&#10;  Q 459.71 425.02 450.79 428.12&#10;  Q 447.36 429.30 444.48 431.44&#10;  C 439.15 435.38 433.22 439.44 429.33 444.38&#10;  C 416.42 460.73 416.08 485.06 427.08 502.48&#10;  Q 428.86 505.30 434.09 511.25&#10;  Q 437.74 515.41 441.64 517.89&#10;  C 449.36 522.78 458.59 526.84 467.82 527.34&#10;  C 476.63 527.81 482.63 525.80 492.34 522.17&#10;  C 488.49 528.02 484.13 530.90 479.28 534.96&#10;  C 474.57 538.90 470.44 544.39 464.73 548.33&#10;  Q 462.79 549.66 461.24 551.66&#10;  Q 457.41 556.63 452.05 559.90&#10;  Q 450.12 561.07 448.61 562.83&#10;  Q 442.80 569.58 433.94 571.69&#10;  A 1.03 1.02 4.5 0 0 433.23 572.29&#10;  L 431.83 575.52&#10;  A 0.71 0.71 0.0 0 1 430.95 575.91&#10;  Q 430.66 575.80 430.50 575.53&#10;  C 431.35 572.11 429.96 570.44 426.46 570.58&#10;  Q 422.48 570.73 418.49 570.78&#10;  C 413.04 570.84 406.24 572.20 400.99 571.46&#10;  C 396.96 570.89 388.10 565.73 389.04 560.14&#10;  Q 389.13 559.63 389.64 559.71&#10;  Q 395.17 560.64 404.74 560.42&#10;  Q 415.47 560.17 421.68 552.95&#10;  C 425.07 549.01 422.35 544.67 417.97 543.11&#10;  Q 406.80 539.13 396.50 533.32&#10;  Q 392.10 530.83 389.10 526.86&#10;  A 1.26 1.26 0.0 0 1 390.34 524.86&#10;  Q 398.67 526.41 407.11 524.03&#10;  C 410.73 523.00 412.95 519.96 411.98 516.08&#10;  Q 410.83 511.49 408.90 509.36&#10;  Q 404.23 504.18 392.63 494.78&#10;  C 389.34 492.12 386.58 489.17 383.63 486.24&#10;  A 0.93 0.92 24.8 0 1 383.35 485.49&#10;  Q 383.44 484.49 384.77 484.47&#10;  Q 395.11 484.32 405.47 485.77&#10;  A 0.86 0.86 0.0 0 0 406.29 485.41&#10;  Q 407.45 483.77 406.18 481.99&#10;  Q 402.76 477.22 397.82 472.23&#10;  C 395.46 469.85 393.86 466.87 391.62 464.27&#10;  C 388.96 461.19 384.06 459.34 381.81 456.19&#10;  Q 376.97 449.43 373.26 442.01&#10;  A 1.40 1.40 0.0 0 0 370.73 442.06&#10;  C 368.83 446.22 366.59 449.78 363.25 453.29&#10;  Q 356.10 460.80 348.96 468.31&#10;  C 344.85 472.64 338.11 479.97 339.72 485.76&#10;  Q 339.84 486.21 340.29 486.36&#10;  Q 342.95 487.21 345.76 487.27&#10;  Q 353.69 487.45 361.71 488.24&#10;  Q 362.26 488.30 361.84 488.65&#10;  Q 354.53 494.70 347.88 501.52&#10;  Q 346.70 502.72 344.36 504.03&#10;  Q 341.94 505.38 339.81 507.72&#10;  Q 339.35 500.67 338.48 493.88&#10;  Q 337.32 484.86 337.02 480.06&#10;  Q 334.69 442.71 335.30 405.29&#10;  C 335.39 399.81 334.75 393.96 334.58 388.18&#10;  Q 334.53 386.24 336.43 386.61&#10;  C 338.90 387.10 341.62 388.62 343.92 389.31&#10;  Q 354.73 392.53 365.66 395.27&#10;  C 368.98 396.10 373.03 397.62 376.93 398.39&#10;  Q 383.71 399.72 385.48 400.18&#10;  Q 403.20 404.77 421.35 407.19&#10;  C 423.58 407.49 426.30 408.27 428.93 408.42&#10;  Q 431.62 408.58 434.60 408.86&#10;  C 441.51 409.49 448.14 406.67 453.80 402.77&#10;  C 456.61 400.84 457.06 399.54 458.23 396.47&#10;  C 461.03 389.17 462.85 380.85 460.24 373.54&#10;  C 459.00 370.08 456.74 365.20 453.21 363.63&#10;  Q 446.36 360.57 439.12 358.77&#10;  C 430.17 356.54 423.54 354.09 415.67 351.38&#10;  C 406.64 348.26 398.19 343.20 389.41 339.17&#10;  C 384.68 337.01 380.18 333.83 375.26 331.44&#10;  C 371.83 329.78 369.47 327.18 366.25 325.12&#10;  C 359.69 320.92 356.04 318.36 351.19 314.25&#10;  Q 349.36 312.69 351.74 312.34&#10;  Q 352.11 312.29 353.73 312.61&#10;  Q 364.74 314.79 375.86 316.35&#10;  C 378.69 316.74 381.72 317.74 384.38 318.09&#10;  Q 392.75 319.18 411.97 321.21&#10;  C 414.96 321.53 419.45 320.54 421.52 318.19&#10;  Q 434.15 303.85 422.56 289.06&#10;  Q 420.91 286.94 418.09 285.46&#10;  Q 408.25 280.27 398.46 275.01&#10;  Q 387.35 269.05 380.39 263.61&#10;  Q 379.99 263.29 379.49 263.20&#10;  C 373.46 262.12 372.20 258.77 367.70 255.86&#10;  C 363.72 253.29 360.74 250.12 356.52 247.70&#10;  Q 349.57 243.72 346.03 235.78&#10;  Q 345.36 234.26 346.92 234.82&#10;  Q 357.19 238.51 368.05 241.91&#10;  Q 372.65 243.36 377.35 244.28&#10;  C 387.39 246.27 396.42 249.42 404.32 240.56&#10;  C 407.52 236.98 407.56 233.14 407.37 228.49&#10;  Q 407.15 222.85 403.39 219.36&#10;  Q 396.16 212.65 388.12 206.94&#10;  C 384.17 204.14 381.00 200.18 376.20 197.73&#10;  C 371.82 195.49 370.98 191.77 367.26 189.48&#10;  C 364.58 187.83 362.10 186.53 359.80 184.37&#10;  Q 350.20 175.34 340.40 166.16&#10;  A 0.32 0.32 0.0 0 1 340.66 165.61&#10;  Q 351.32 166.81 362.06 168.80&#10;  Q 369.75 170.22 375.53 164.96&#10;  C 382.73 158.41 376.78 149.89 372.42 144.31&#10;  C 368.72 139.58 363.96 138.39 359.48 135.12&#10;  Q 351.85 129.56 343.40 125.35&#10;  C 339.51 123.41 337.13 120.89 334.18 117.97&#10;  C 331.32 115.14 326.22 111.99 324.05 108.48&#10;  Q 322.01 105.19 318.11 95.00&#10;  C 315.36 87.82 314.67 82.67 308.67 77.07&#10;  Q 308.31 76.73 307.81 76.76&#10;  C 301.35 77.10 296.81 89.90 295.62 95.49&#10;  Q 294.94 98.69 293.70 100.78&#10;  Q 284.93 115.46 270.16 124.03&#10;  C 266.81 125.98 264.03 128.22 260.92 130.33&#10;  Q 258.90 131.71 253.56 134.29&#10;  C 247.44 137.24 240.00 142.74 236.99 148.91&#10;  C 234.03 154.98 233.93 163.63 240.33 167.34&#10;  Q 242.82 168.79 247.43 169.05&#10;  C 255.57 169.52 263.97 167.23 271.87 165.30&#10;  A 0.67 0.67 0.0 0 1 272.60 166.30&#10;  C 270.14 170.31 265.15 172.13 261.93 176.03&#10;  Q 259.82 178.58 258.01 179.91&#10;  Q 246.32 188.54 235.36 198.11&#10;  C 232.14 200.93 228.52 202.25 225.45 205.44&#10;  Q 221.26 209.79 216.26 213.14&#10;  C 212.89 215.40 205.39 221.76 204.74 225.72&#10;  Q 203.00 236.12 210.48 243.04&#10;  C 214.19 246.47 220.67 245.53 225.16 245.49&#10;  C 230.80 245.45 236.26 244.12 241.77 243.09&#10;  Q 245.82 242.33 250.55 240.68&#10;  Q 258.47 237.90 266.53 236.00&#10;  A 0.38 0.37 10.7 0 1 266.93 236.58&#10;  Q 262.24 243.20 255.71 246.93&#10;  Q 252.92 248.52 251.20 250.21&#10;  C 249.23 252.15 247.08 254.74 244.57 255.97&#10;  C 235.42 260.45 227.02 267.60 221.51 270.49&#10;  Q 215.78 273.49 212.56 275.56&#10;  C 208.92 277.90 205.97 279.22 202.46 280.96&#10;  Q 200.82 281.77 197.33 283.99&#10;  C 194.29 285.91 190.30 286.84 188.05 289.51&#10;  C 184.48 293.72 182.82 299.10 184.25 304.57&#10;  Q 184.87 306.91 185.41 309.25&#10;  Q 186.86 315.42 191.60 319.06&#10;  C 194.61 321.37 197.70 321.56 201.36 321.03&#10;  Q 204.23 320.61 213.27 319.91&#10;  C 222.53 319.19 231.35 317.40 240.40 315.84&#10;  C 247.34 314.64 254.44 312.43 261.53 310.78&#10;  A 0.53 0.53 0.0 0 1 261.98 311.70&#10;  C 259.17 314.01 255.97 315.22 253.55 317.84&#10;  Q 248.79 323.00 245.38 325.36&#10;  Q 237.23 331.00 219.40 341.14&#10;  C 213.78 344.33 202.74 349.18 194.28 352.24&#10;  C 188.71 354.25 183.59 356.96 177.83 358.22&#10;  C 172.06 359.49 166.06 360.48 161.09 363.16&#10;  C 158.68 364.45 151.56 368.64 151.40 371.50&#10;  Q 151.03 378.02 151.33 388.20&#10;  Q 151.44 391.93 152.72 394.56&#10;  C 155.53 400.35 161.04 406.38 167.75 407.42&#10;  C 173.18 408.26 178.33 409.00 183.80 408.05&#10;  Q 187.02 407.48 189.75 407.20&#10;  Q 192.06 406.95 195.76 406.42&#10;  C 204.45 405.16 212.61 403.88 221.64 401.75&#10;  C 228.23 400.19 235.08 398.87 241.37 397.11&#10;  Q 260.11 391.86 278.72 386.21&#10;  A 0.38 0.38 0.0 0 1 279.21 386.57&#10;  Q 279.26 434.29 275.69 482.08&#10;  C 275.49 484.78 274.83 487.80 274.61 490.72&#10;  Q 274.27 495.25 273.94 497.21&#10;  Q 270.96 515.08 266.98 532.75&#10;  C 266.05 536.86 264.51 540.58 262.92 544.41&#10;  C 261.61 547.54 259.28 548.98 259.17 553.27&#10;  Q 257.18 551.30 257.55 548.37&#10;  Q 257.61 547.92 257.96 547.62&#10;  Q 260.44 545.56 259.58 542.19&#10;  Q 259.46 541.68 258.93 541.67&#10;  C 252.85 541.49 239.74 540.52 236.94 534.04&#10;  A 0.70 0.70 0.0 0 1 237.79 533.09&#10;  Q 246.38 535.64 254.62 536.98&#10;  C 257.03 537.36 258.96 537.02 261.07 536.10&#10;  A 0.72 0.72 0.0 0 0 261.37 535.01&#10;  C 258.46 531.11 252.56 524.88 247.26 525.08&#10;  Q 244.16 525.20 239.03 523.27&#10;  C 236.34 522.26 233.57 520.39 230.77 519.03&#10;  C 228.67 518.01 227.97 516.40 227.32 514.34&#10;  A 0.58 0.57 77.9 0 1 227.80 513.59&#10;  Q 231.13 513.18 234.26 514.42&#10;  A 1.21 1.17 -41.8 0 0 235.04 514.45&#10;  L 247.88 510.44&#10;  A 0.83 0.82 51.3 0 1 248.55 510.52&#10;  L 251.82 512.48&#10;  A 0.57 0.54 57.7 0 0 252.14 512.56&#10;  Q 255.71 512.47 259.25 512.92&#10;  A 0.45 0.45 0.0 0 0 259.63 512.16&#10;  Q 254.38 506.84 248.17 502.72&#10;  C 245.26 500.79 241.21 499.05 238.42 495.83&#10;  Q 232.30 488.76 229.23 485.29&#10;  Q 227.19 482.99 226.29 479.83&#10;  A 0.92 0.92 0.0 0 1 227.43 478.70&#10;  Q 230.97 479.76 234.78 480.57&#10;  C 241.48 481.99 248.87 481.59 255.80 481.43&#10;  A 0.45 0.44 60.8 0 0 256.03 480.61&#10;  Q 248.63 475.78 241.33 470.40&#10;  C 238.37 468.23 237.32 467.55 236.53 463.74&#10;  Q 235.89 460.71 233.19 458.81&#10;  Q 228.28 455.36 224.00 451.19&#10;  C 220.24 447.53 218.29 442.71 215.80 438.05&#10;  C 214.64 435.89 214.17 433.76 213.62 431.42&#10;  Q 213.48 430.83 213.05 431.26&#10;  Q 211.04 433.29 209.27 437.00&#10;  Q 206.89 441.99 202.41 446.72&#10;  Q 199.63 449.65 198.08 452.22&#10;  Q 194.57 458.04 190.97 463.86&#10;  Q 190.68 464.33 190.23 464.00&#10;  Q 187.83 462.22 187.40 459.23&#10;  A 1.05 1.04 -34.8 0 0 185.45 458.88&#10;  Q 183.08 463.16 182.28 466.99&#10;  Q 181.76 469.48 179.40 469.62&#10;  Q 178.90 469.65 178.67 470.09&#10;  C 176.26 474.74 175.06 480.62 167.90 475.59&#10;  A 1.35 1.35 0.0 0 1 167.77 473.49&#10;  L 171.96 469.67&#10;  A 1.60 1.60 0.0 0 0 171.41 466.98&#10;  Q 166.71 465.33 162.33 464.43&#10;  C 159.06 463.76 155.69 460.78 152.78 459.25&#10;  Q 150.67 458.14 148.58 457.08&#10;  A 0.74 0.73 24.7 0 1 148.23 456.15&#10;  Q 148.43 455.61 149.26 455.62&#10;  Q 159.34 455.83 168.70 451.73&#10;  A 0.61 0.61 0.0 0 0 168.83 450.68&#10;  L 166.76 449.09&#10;  A 1.48 1.48 0.0 0 1 166.49 447.00&#10;  Q 168.86 443.94 168.83 439.95&#10;  A 0.82 0.82 0.0 0 0 167.33 439.51&#10;  L 165.59 442.17&#10;  Q 165.28 442.64 164.73 442.65&#10;  Q 160.19 442.75 156.94 439.65&#10;  Q 156.56 439.28 156.78 438.81&#10;  L 158.36 435.45&#10;  Q 158.55 435.06 158.40 434.65&#10;  Q 156.96 430.63 153.54 432.38&#10;  Q 153.10 432.61 152.62 432.44&#10;  Q 150.02 431.55 149.45 430.54&#10;  Q 147.18 426.52 143.98 423.20&#10;  C 142.15 421.30 141.93 419.58 142.79 417.23&#10;  Q 142.97 416.73 142.46 416.57&#10;  C 139.28 415.57 137.80 412.84 135.47 410.62&#10;  Q 135.09 410.26 134.64 410.52&#10;  Q 129.65 413.38 126.99 418.41&#10;  C 126.05 420.19 126.51 421.86 126.41 423.84&#10;  A 1.23 1.21 69.8 0 1 126.03 424.68&#10;  C 119.21 431.11 111.67 434.68 105.41 439.97&#10;  C 103.36 441.70 101.69 442.79 99.27 443.02&#10;  A 0.68 0.67 59.4 0 0 98.96 444.25&#10;  Q 106.04 449.08 113.00 452.72&#10;  C 115.70 454.13 118.56 453.16 121.45 454.01&#10;  Q 123.06 454.49 124.85 454.95&#10;  A 0.74 0.73 47.5 0 1 124.79 456.39&#10;  L 119.88 457.18&#10;  A 0.79 0.78 -27.1 0 1 119.24 456.98&#10;  Q 116.11 453.99 113.34 457.60&#10;  Q 103.93 469.85 90.88 478.04&#10;  A 0.93 0.93 0.0 0 0 91.00 479.68&#10;  C 99.17 483.31 106.95 482.19 115.43 480.30&#10;  A 0.40 0.40 0.0 0 1 115.77 480.99&#10;  C 112.58 483.68 110.53 485.86 107.20 489.64&#10;  Q 103.84 493.46 99.50 496.13&#10;  Q 97.17 493.56 95.70 491.56&#10;  C 89.09 482.61 82.61 474.19 76.72 464.31&#10;  C 73.49 458.88 69.75 453.49 67.02 448.06&#10;  Q 61.12 436.34 55.76 424.36&#10;  C 52.19 416.41 49.61 407.49 46.65 398.99&#10;  C 43.93 391.16 42.43 383.47 40.58 375.50&#10;  C 30.95 333.98 30.98 292.33 40.86 250.94&#10;  C 43.43 240.18 45.66 228.66 50.09 217.72&#10;  Q 53.34 209.67 55.44 204.07&#10;  C 58.61 195.60 62.88 188.19 66.63 180.97&#10;  Q 69.07 176.28 72.20 171.54&#10;  C 75.76 166.15 78.82 159.90 82.21 155.01&#10;  C 89.02 145.19 96.17 134.74 104.39 126.06&#10;  C 109.65 120.52 114.44 115.19 120.31 109.82&#10;  Q 123.44 106.96 126.48 103.99&#10;  C 131.02 99.57 136.26 96.15 141.15 92.12&#10;  Q 144.35 89.48 149.21 86.31&#10;  C 154.16 83.08 158.26 78.95 163.26 76.17&#10;  C 172.31 71.15 181.56 65.51 190.37 61.30&#10;  Q 211.04 51.42 228.74 45.99&#10;  Q 266.49 34.43 308.58 34.65&#10;  Q 312.48 34.67 320.39 35.27&#10;  C 325.67 35.67 331.23 35.69 336.16 36.27&#10;  Q 357.17 38.73 377.73 43.78&#10;  Q 391.56 47.18 404.89 52.17&#10;  Q 410.39 54.22 419.81 59.01&#10;  C 426.37 62.35 433.32 65.19 439.43 68.77&#10;  C 446.89 73.13 454.42 77.29 461.15 82.76&#10;  C 464.08 85.14 467.70 87.19 470.27 89.11&#10;  Q 490.72 104.39 510.09 124.91&#10;  Q 513.53 128.55 515.76 131.30&#10;  C 518.67 134.87 522.00 138.40 524.53 142.32&#10;  Q 526.74 145.74 528.71 148.04&#10;  C 530.82 150.50 532.65 152.70 534.29 155.70&#10;  C 537.09 160.84 540.88 165.74 543.52 170.42&#10;  C 548.33 178.99 553.88 187.25 557.51 196.36&#10;  C 562.52 208.92 568.07 221.41 571.66 234.28&#10;  Q 575.23 247.09 576.95 254.76&#10;  Q 588.92 307.92 579.42 361.20&#10;  Q 577.97 369.34 574.90 380.66&#10;  C 570.25 397.80 566.77 409.88 560.75 425.10&#10;  C 557.45 433.43 552.14 441.43 548.23 449.86&#10;  Q 546.30 454.03 543.68 457.82&#10;  Q 537.67 466.51 532.69 475.83&#10;  C 530.79 479.39 527.95 482.14 525.74 485.64&#10;  Q 525.36 486.24 524.87 486.39&#10;  Q 523.94 486.69 523.67 485.72&#10;  Z" data-c-fill="da4101"/>
<path fill="#443a1d" d="&#10;  M 259.17 553.27&#10;  Q 258.63 557.71 256.09 561.84&#10;  Q 244.28 560.49 236.99 557.49&#10;  Q 232.02 555.45 230.07 558.87&#10;  Q 229.77 559.40 229.85 560.02&#10;  L 230.80 566.86&#10;  A 0.45 0.44 25.8 0 0 230.88 567.08&#10;  Q 233.37 570.66 236.58 571.44&#10;  Q 242.51 572.89 248.48 574.31&#10;  C 245.96 578.36 242.00 582.12 239.72 585.09&#10;  C 237.43 588.09 236.13 590.42 232.98 592.88&#10;  Q 226.88 597.63 222.67 604.45&#10;  Q 218.27 599.62 215.13 597.61&#10;  C 207.10 592.47 199.38 586.88 191.54 581.47&#10;  C 187.77 578.88 184.45 575.85 180.69 573.34&#10;  Q 175.39 569.79 170.60 565.59&#10;  C 167.13 562.55 163.16 560.04 159.63 556.97&#10;  Q 158.17 555.69 152.96 551.54&#10;  Q 150.69 549.74 148.72 547.61&#10;  Q 146.44 545.17 144.49 543.73&#10;  C 140.32 540.65 136.78 537.96 133.03 533.84&#10;  C 129.15 529.60 124.35 525.89 120.77 521.96&#10;  Q 114.15 514.70 107.46 507.51&#10;  Q 102.90 502.61 99.50 496.13&#10;  Q 103.84 493.46 107.20 489.64&#10;  C 110.53 485.86 112.58 483.68 115.77 480.99&#10;  A 0.40 0.40 0.0 0 0 115.43 480.30&#10;  C 106.95 482.19 99.17 483.31 91.00 479.68&#10;  A 0.93 0.93 0.0 0 1 90.88 478.04&#10;  Q 103.93 469.85 113.34 457.60&#10;  Q 116.11 453.99 119.24 456.98&#10;  A 0.79 0.78 -27.1 0 0 119.88 457.18&#10;  L 124.79 456.39&#10;  A 0.74 0.73 47.5 0 0 124.85 454.95&#10;  Q 123.06 454.49 121.45 454.01&#10;  C 118.56 453.16 115.70 454.13 113.00 452.72&#10;  Q 106.04 449.08 98.96 444.25&#10;  A 0.68 0.67 59.4 0 1 99.27 443.02&#10;  C 101.69 442.79 103.36 441.70 105.41 439.97&#10;  C 111.67 434.68 119.21 431.11 126.03 424.68&#10;  A 1.23 1.21 69.8 0 0 126.41 423.84&#10;  C 126.51 421.86 126.05 420.19 126.99 418.41&#10;  Q 129.65 413.38 134.64 410.52&#10;  Q 135.09 410.26 135.47 410.62&#10;  C 137.80 412.84 139.28 415.57 142.46 416.57&#10;  Q 142.97 416.73 142.79 417.23&#10;  C 141.93 419.58 142.15 421.30 143.98 423.20&#10;  Q 147.18 426.52 149.45 430.54&#10;  Q 150.02 431.55 152.62 432.44&#10;  Q 153.10 432.61 153.54 432.38&#10;  Q 156.96 430.63 158.40 434.65&#10;  Q 158.55 435.06 158.36 435.45&#10;  L 156.78 438.81&#10;  Q 156.56 439.28 156.94 439.65&#10;  Q 160.19 442.75 164.73 442.65&#10;  Q 165.28 442.64 165.59 442.17&#10;  L 167.33 439.51&#10;  A 0.82 0.82 0.0 0 1 168.83 439.95&#10;  Q 168.86 443.94 166.49 447.00&#10;  A 1.48 1.48 0.0 0 0 166.76 449.09&#10;  L 168.83 450.68&#10;  A 0.61 0.61 0.0 0 1 168.70 451.73&#10;  Q 159.34 455.83 149.26 455.62&#10;  Q 148.43 455.61 148.23 456.15&#10;  A 0.74 0.73 24.7 0 0 148.58 457.08&#10;  Q 150.67 458.14 152.78 459.25&#10;  C 155.69 460.78 159.06 463.76 162.33 464.43&#10;  Q 166.71 465.33 171.41 466.98&#10;  A 1.60 1.60 0.0 0 1 171.96 469.67&#10;  L 167.77 473.49&#10;  A 1.35 1.35 0.0 0 0 167.90 475.59&#10;  C 175.06 480.62 176.26 474.74 178.67 470.09&#10;  Q 178.90 469.65 179.40 469.62&#10;  Q 181.76 469.48 182.28 466.99&#10;  Q 183.08 463.16 185.45 458.88&#10;  A 1.05 1.04 -34.8 0 1 187.40 459.23&#10;  Q 187.83 462.22 190.23 464.00&#10;  Q 190.68 464.33 190.97 463.86&#10;  Q 194.57 458.04 198.08 452.22&#10;  Q 199.63 449.65 202.41 446.72&#10;  Q 206.89 441.99 209.27 437.00&#10;  Q 211.04 433.29 213.05 431.26&#10;  Q 213.48 430.83 213.62 431.42&#10;  C 214.17 433.76 214.64 435.89 215.80 438.05&#10;  C 218.29 442.71 220.24 447.53 224.00 451.19&#10;  Q 228.28 455.36 233.19 458.81&#10;  Q 235.89 460.71 236.53 463.74&#10;  C 237.32 467.55 238.37 468.23 241.33 470.40&#10;  Q 248.63 475.78 256.03 480.61&#10;  A 0.45 0.44 60.8 0 1 255.80 481.43&#10;  C 248.87 481.59 241.48 481.99 234.78 480.57&#10;  Q 230.97 479.76 227.43 478.70&#10;  A 0.92 0.92 0.0 0 0 226.29 479.83&#10;  Q 227.19 482.99 229.23 485.29&#10;  Q 232.30 488.76 238.42 495.83&#10;  C 241.21 499.05 245.26 500.79 248.17 502.72&#10;  Q 254.38 506.84 259.63 512.16&#10;  A 0.45 0.45 0.0 0 1 259.25 512.92&#10;  Q 255.71 512.47 252.14 512.56&#10;  A 0.57 0.54 57.7 0 1 251.82 512.48&#10;  L 248.55 510.52&#10;  A 0.83 0.82 51.3 0 0 247.88 510.44&#10;  L 235.04 514.45&#10;  A 1.21 1.17 -41.8 0 1 234.26 514.42&#10;  Q 231.13 513.18 227.80 513.59&#10;  A 0.58 0.57 77.9 0 0 227.32 514.34&#10;  C 227.97 516.40 228.67 518.01 230.77 519.03&#10;  C 233.57 520.39 236.34 522.26 239.03 523.27&#10;  Q 244.16 525.20 247.26 525.08&#10;  C 252.56 524.88 258.46 531.11 261.37 535.01&#10;  A 0.72 0.72 0.0 0 1 261.07 536.10&#10;  C 258.96 537.02 257.03 537.36 254.62 536.98&#10;  Q 246.38 535.64 237.79 533.09&#10;  A 0.70 0.70 0.0 0 0 236.94 534.04&#10;  C 239.74 540.52 252.85 541.49 258.93 541.67&#10;  Q 259.46 541.68 259.58 542.19&#10;  Q 260.44 545.56 257.96 547.62&#10;  Q 257.61 547.92 257.55 548.37&#10;  Q 257.18 551.30 259.17 553.27&#10;  Z&#10;  M 173.39 493.07&#10;  Q 177.61 497.37 182.89 496.28&#10;  Q 186.13 495.61 189.48 493.95&#10;  C 194.61 491.40 196.68 485.43 198.23 479.87&#10;  Q 198.39 479.30 197.80 479.35&#10;  Q 185.76 480.32 182.25 480.02&#10;  Q 179.41 479.78 177.20 480.19&#10;  Q 176.29 480.37 173.16 482.12&#10;  C 167.80 485.11 160.06 481.99 154.21 480.74&#10;  Q 153.45 480.58 153.81 481.28&#10;  L 160.15 493.49&#10;  Q 160.42 494.01 160.96 494.26&#10;  Q 167.25 497.25 172.54 493.02&#10;  Q 172.99 492.66 173.39 493.07&#10;  Z&#10;  M 155.41 515.25&#10;  Q 164.67 522.19 176.29 522.68&#10;  Q 177.02 522.71 176.84 522.00&#10;  L 176.60 521.03&#10;  A 0.77 0.77 0.0 0 0 175.78 520.45&#10;  Q 169.72 521.01 164.12 518.97&#10;  C 161.40 517.98 158.64 515.68 155.71 514.68&#10;  Q 153.75 514.01 155.41 515.25&#10;  Z&#10;  M 192.08 519.55&#10;  C 194.26 514.14 186.05 513.71 183.35 514.81&#10;  A 1.05 1.03 -7.6 0 0 182.71 515.63&#10;  C 182.43 517.67 181.35 521.15 182.23 522.93&#10;  Q 183.11 524.72 185.02 524.66&#10;  Q 190.09 524.49 192.08 519.55&#10;  Z&#10;  M 149.45 545.65&#10;  A 0.94 0.93 -56.2 0 0 149.68 546.83&#10;  L 153.75 550.14&#10;  Q 154.12 550.45 154.54 550.21&#10;  Q 171.05 540.84 189.15 535.09&#10;  A 0.36 0.36 0.0 0 0 189.01 534.39&#10;  C 184.69 534.78 181.01 534.47 176.40 533.47&#10;  Q 165.14 531.02 153.74 529.23&#10;  A 0.73 0.73 0.0 0 0 152.90 529.99&#10;  Q 153.37 538.39 149.45 545.65&#10;  Z&#10;  M 173.22 566.08&#10;  Q 175.32 567.73 177.26 568.70&#10;  C 180.55 570.36 187.23 569.36 190.96 569.01&#10;  Q 191.51 568.96 191.47 568.41&#10;  Q 191.25 565.19 192.53 562.37&#10;  Q 192.69 562.01 192.69 561.68&#10;  Q 192.69 561.19 192.61 560.95&#10;  A 0.90 0.90 0.0 0 0 191.34 560.39&#10;  Q 188.63 561.71 185.84 562.62&#10;  C 182.19 563.81 177.51 564.11 173.53 564.83&#10;  Q 171.99 565.12 173.22 566.08&#10;  Z" data-c-fill="443a1d"/>
<path fill="#b45f06" d="&#10;  M 523.67 485.72&#10;  Q 521.65 491.45 519.53 493.28&#10;  Q 514.43 497.70 510.79 503.43&#10;  Q 509.47 505.51 507.62 506.99&#10;  Q 501.95 511.53 497.66 517.36&#10;  C 496.08 519.49 494.29 520.53 492.34 522.17&#10;  C 482.63 525.80 476.63 527.81 467.82 527.34&#10;  C 458.59 526.84 449.36 522.78 441.64 517.89&#10;  Q 437.74 515.41 434.09 511.25&#10;  Q 428.86 505.30 427.08 502.48&#10;  C 416.08 485.06 416.42 460.73 429.33 444.38&#10;  C 433.22 439.44 439.15 435.38 444.48 431.44&#10;  Q 447.36 429.30 450.79 428.12&#10;  Q 459.71 425.02 462.52 424.51&#10;  Q 478.47 421.63 491.51 426.27&#10;  Q 510.14 432.89 520.99 451.53&#10;  Q 522.92 454.86 524.94 462.07&#10;  Q 526.78 468.62 526.65 473.13&#10;  Q 526.47 479.74 523.67 485.72&#10;  Z" data-c-fill="efd088"/>
<path fill="#443a1d" d="&#10;  M 430.50 575.53&#10;  Q 430.48 576.00 429.57 576.81&#10;  C 420.16 585.08 409.77 594.21 398.93 598.94&#10;  Q 394.69 600.79 390.94 602.40&#10;  Q 388.08 600.21 385.10 598.57&#10;  Q 382.92 597.36 381.48 595.66&#10;  C 376.10 589.26 369.29 583.77 364.72 577.08&#10;  C 355.41 563.45 349.78 548.84 345.33 532.41&#10;  Q 349.21 532.51 352.81 531.69&#10;  C 353.80 531.46 355.89 531.66 356.47 530.15&#10;  A 1.77 1.77 0.0 0 0 355.67 527.98&#10;  L 347.80 523.63&#10;  Q 347.42 523.42 347.33 522.99&#10;  Q 346.26 517.95 341.50 517.13&#10;  L 339.81 507.72&#10;  Q 341.94 505.38 344.36 504.03&#10;  Q 346.70 502.72 347.88 501.52&#10;  Q 354.53 494.70 361.84 488.65&#10;  Q 362.26 488.30 361.71 488.24&#10;  Q 353.69 487.45 345.76 487.27&#10;  Q 342.95 487.21 340.29 486.36&#10;  Q 339.84 486.21 339.72 485.76&#10;  C 338.11 479.97 344.85 472.64 348.96 468.31&#10;  Q 356.10 460.80 363.25 453.29&#10;  C 366.59 449.78 368.83 446.22 370.73 442.06&#10;  A 1.40 1.40 0.0 0 1 373.26 442.01&#10;  Q 376.97 449.43 381.81 456.19&#10;  C 384.06 459.34 388.96 461.19 391.62 464.27&#10;  C 393.86 466.87 395.46 469.85 397.82 472.23&#10;  Q 402.76 477.22 406.18 481.99&#10;  Q 407.45 483.77 406.29 485.41&#10;  A 0.86 0.86 0.0 0 1 405.47 485.77&#10;  Q 395.11 484.32 384.77 484.47&#10;  Q 383.44 484.49 383.35 485.49&#10;  A 0.93 0.92 24.8 0 0 383.63 486.24&#10;  C 386.58 489.17 389.34 492.12 392.63 494.78&#10;  Q 404.23 504.18 408.90 509.36&#10;  Q 410.83 511.49 411.98 516.08&#10;  C 412.95 519.96 410.73 523.00 407.11 524.03&#10;  Q 398.67 526.41 390.34 524.86&#10;  A 1.26 1.26 0.0 0 0 389.10 526.86&#10;  Q 392.10 530.83 396.50 533.32&#10;  Q 406.80 539.13 417.97 543.11&#10;  C 422.35 544.67 425.07 549.01 421.68 552.95&#10;  Q 415.47 560.17 404.74 560.42&#10;  Q 395.17 560.64 389.64 559.71&#10;  Q 389.13 559.63 389.04 560.14&#10;  C 388.10 565.73 396.96 570.89 400.99 571.46&#10;  C 406.24 572.20 413.04 570.84 418.49 570.78&#10;  Q 422.48 570.73 426.46 570.58&#10;  C 429.96 570.44 431.35 572.11 430.50 575.53&#10;  Z&#10;  M 398.73 574.94&#10;  L 394.77 573.55&#10;  A 0.68 0.68 0.0 0 0 393.90 573.97&#10;  L 393.85 574.12&#10;  A 3.20 2.77 -70.7 0 0 395.40 578.05&#10;  L 395.42 578.06&#10;  A 3.20 2.77 -70.7 0 0 399.09 575.96&#10;  L 399.15 575.80&#10;  A 0.68 0.68 0.0 0 0 398.73 574.94&#10;  Z" data-c-fill="443a1d"/>
<path fill="#f1c232" d="&#10;  M 172.54 493.02&#10;  Q 167.25 497.25 160.96 494.26&#10;  Q 160.42 494.01 160.15 493.49&#10;  L 153.81 481.28&#10;  Q 153.45 480.58 154.21 480.74&#10;  C 160.06 481.99 167.80 485.11 173.16 482.12&#10;  Q 176.29 480.37 177.20 480.19&#10;  Q 179.41 479.78 182.25 480.02&#10;  Q 185.76 480.32 197.80 479.35&#10;  Q 198.39 479.30 198.23 479.87&#10;  C 196.68 485.43 194.61 491.40 189.48 493.95&#10;  Q 186.13 495.61 182.89 496.28&#10;  Q 177.61 497.37 173.39 493.07&#10;  Q 172.99 492.66 172.54 493.02&#10;  Z" data-c-fill="da4101"/>
<path fill="#f1c232" d="&#10;  M 155.41 515.25&#10;  Q 153.75 514.01 155.71 514.68&#10;  C 158.64 515.68 161.40 517.98 164.12 518.97&#10;  Q 169.72 521.01 175.78 520.45&#10;  A 0.77 0.77 0.0 0 1 176.60 521.03&#10;  L 176.84 522.00&#10;  Q 177.02 522.71 176.29 522.68&#10;  Q 164.67 522.19 155.41 515.25&#10;  Z" data-c-fill="da4101"/>
<path fill="#f1c232" d="&#10;  M 183.35 514.81&#10;  C 186.05 513.71 194.26 514.14 192.08 519.55&#10;  Q 190.09 524.49 185.02 524.66&#10;  Q 183.11 524.72 182.23 522.93&#10;  C 181.35 521.15 182.43 517.67 182.71 515.63&#10;  A 1.05 1.03 -7.6 0 1 183.35 514.81&#10;  Z" data-c-fill="da4101"/>
<path fill="#f1c232" d="&#10;  M 341.50 517.13&#10;  Q 346.26 517.95 347.33 522.99&#10;  Q 347.42 523.42 347.80 523.63&#10;  L 355.67 527.98&#10;  A 1.77 1.77 0.0 0 1 356.47 530.15&#10;  C 355.89 531.66 353.80 531.46 352.81 531.69&#10;  Q 349.21 532.51 345.33 532.41&#10;  L 341.50 517.13&#10;  Z" data-c-fill="da4101"/>
<path fill="#f1c232" d="&#10;  M 149.45 545.65&#10;  Q 153.37 538.39 152.90 529.99&#10;  A 0.73 0.73 0.0 0 1 153.74 529.23&#10;  Q 165.14 531.02 176.40 533.47&#10;  C 181.01 534.47 184.69 534.78 189.01 534.39&#10;  A 0.36 0.36 0.0 0 1 189.15 535.09&#10;  Q 171.05 540.84 154.54 550.21&#10;  Q 154.12 550.45 153.75 550.14&#10;  L 149.68 546.83&#10;  A 0.94 0.93 -56.2 0 1 149.45 545.65&#10;  Z" data-c-fill="da4101"/>
<path fill="#f1c232" d="&#10;  M 256.09 561.84&#10;  L 248.48 574.31&#10;  Q 242.51 572.89 236.58 571.44&#10;  Q 233.37 570.66 230.88 567.08&#10;  A 0.45 0.44 25.8 0 1 230.80 566.86&#10;  L 229.85 560.02&#10;  Q 229.77 559.40 230.07 558.87&#10;  Q 232.02 555.45 236.99 557.49&#10;  Q 244.28 560.49 256.09 561.84&#10;  Z" data-c-fill="da4101"/>
<path fill="#f1c232" d="&#10;  M 173.22 566.08&#10;  Q 171.99 565.12 173.53 564.83&#10;  C 177.51 564.11 182.19 563.81 185.84 562.62&#10;  Q 188.63 561.71 191.34 560.39&#10;  A 0.90 0.90 0.0 0 1 192.61 560.95&#10;  Q 192.69 561.19 192.69 561.68&#10;  Q 192.69 562.01 192.53 562.37&#10;  Q 191.25 565.19 191.47 568.41&#10;  Q 191.51 568.96 190.96 569.01&#10;  C 187.23 569.36 180.55 570.36 177.26 568.70&#10;  Q 175.32 567.73 173.22 566.08&#10;  Z" data-c-fill="da4101"/>
<path fill="#f1c232" d="&#10;  M 398.73 574.94&#10;  A 0.68 0.68 0.0 0 1 399.15 575.80&#10;  L 399.09 575.96&#10;  A 3.20 2.77 -70.7 0 1 395.42 578.06&#10;  L 395.40 578.05&#10;  A 3.20 2.77 -70.7 0 1 393.85 574.12&#10;  L 393.90 573.97&#10;  A 0.68 0.68 0.0 0 1 394.77 573.55&#10;  L 398.73 574.94&#10;  Z" data-c-fill="da4101"/>
<path fill="#000000" d="&#10;  M 33.31 820.05&#10;  L 33.31 870.94&#10;  A 0.69 0.69 0.0 0 1 32.62 871.63&#10;  L 18.26 871.66&#10;  A 0.69 0.69 0.0 0 1 17.57 870.97&#10;  L 17.51 820.09&#10;  A 0.69 0.69 0.0 0 0 16.83 819.41&#10;  L 3.13 819.31&#10;  A 0.69 0.69 0.0 0 1 2.45 818.63&#10;  L 2.39 806.06&#10;  A 0.69 0.69 0.0 0 1 3.08 805.37&#10;  L 45.95 805.47&#10;  A 0.69 0.69 0.0 0 1 46.63 806.15&#10;  L 46.72 818.67&#10;  A 0.69 0.69 0.0 0 1 46.04 819.36&#10;  L 34.00 819.36&#10;  A 0.69 0.69 0.0 0 0 33.31 820.05&#10;  Z" data-c-fill="000000"/>
<path fill="#000000" d="&#10;  M 143.74 857.55&#10;  L 141.41 871.09&#10;  Q 141.34 871.51 140.91 871.51&#10;  L 127.91 871.52&#10;  A 1.55 1.55 0.0 0 1 126.40 869.64&#10;  C 128.01 862.31 130.65 855.34 131.91 848.32&#10;  Q 134.08 836.15 135.47 832.50&#10;  Q 140.46 819.38 143.73 805.73&#10;  Q 143.83 805.29 144.28 805.30&#10;  L 159.24 805.39&#10;  A 2.10 2.09 82.2 0 1 161.24 806.92&#10;  Q 164.13 817.21 167.52 827.81&#10;  C 169.95 835.39 172.45 845.87 175.81 854.67&#10;  C 178.04 860.48 179.00 865.45 180.15 871.22&#10;  Q 180.23 871.63 179.81 871.63&#10;  L 165.61 871.62&#10;  A 1.19 1.18 -4.6 0 1 164.44 870.63&#10;  L 162.59 858.96&#10;  A 1.73 1.72 85.8 0 0 160.91 857.50&#10;  L 144.13 857.23&#10;  Q 143.80 857.22 143.74 857.55&#10;  Z&#10;  M 147.84 848.03&#10;  A 0.32 0.32 0.0 0 0 148.14 848.43&#10;  L 157.77 848.58&#10;  A 0.32 0.32 0.0 0 0 158.09 848.19&#10;  L 153.62 826.03&#10;  A 0.32 0.32 0.0 0 0 153.00 826.02&#10;  L 147.84 848.03&#10;  Z" data-c-fill="000000"/>
<path fill="#000000" d="&#10;  M 214.33 832.48&#10;  L 231.78 832.33&#10;  A 0.86 0.86 0.0 0 1 232.65 833.20&#10;  L 232.50 843.48&#10;  A 0.86 0.86 0.0 0 1 231.64 844.33&#10;  L 213.39 844.34&#10;  A 0.86 0.86 0.0 0 0 212.53 845.20&#10;  L 212.47 870.81&#10;  A 0.86 0.86 0.0 0 1 211.61 871.67&#10;  L 198.11 871.63&#10;  A 0.86 0.86 0.0 0 1 197.25 870.77&#10;  L 197.29 806.35&#10;  A 0.86 0.86 0.0 0 1 198.15 805.49&#10;  L 235.45 805.48&#10;  A 0.86 0.86 0.0 0 1 236.31 806.33&#10;  L 236.50 818.55&#10;  A 0.86 0.86 0.0 0 1 235.63 819.43&#10;  L 214.21 819.37&#10;  A 0.86 0.86 0.0 0 0 213.35 820.24&#10;  L 213.46 831.63&#10;  A 0.86 0.86 0.0 0 0 214.33 832.48&#10;  Z" data-c-fill="000000"/>
<path fill="#000000" d="&#10;  M 271.63 833.47&#10;  L 289.74 833.45&#10;  A 0.82 0.82 0.0 0 1 290.56 834.26&#10;  L 290.74 845.55&#10;  A 0.82 0.82 0.0 0 1 289.91 846.39&#10;  L 271.66 846.30&#10;  A 0.82 0.82 0.0 0 0 270.84 847.12&#10;  L 270.82 871.88&#10;  A 0.82 0.82 0.0 0 1 269.95 872.70&#10;  L 256.08 871.79&#10;  A 0.82 0.82 0.0 0 1 255.31 870.97&#10;  L 255.44 806.31&#10;  A 0.82 0.82 0.0 0 1 256.26 805.49&#10;  L 295.53 805.50&#10;  A 0.82 0.82 0.0 0 1 296.35 806.32&#10;  L 296.41 818.52&#10;  A 0.82 0.82 0.0 0 1 295.58 819.35&#10;  L 271.76 819.26&#10;  A 0.82 0.82 0.0 0 0 270.94 820.07&#10;  L 270.81 832.64&#10;  A 0.82 0.82 0.0 0 0 271.63 833.47&#10;  Z" data-c-fill="000000"/>
<path fill="#000000" d="&#10;  M 528.04 852.38&#10;  A 0.25 0.25 0.0 0 0 528.52 852.38&#10;  Q 531.66 841.41 534.58 830.36&#10;  C 536.31 823.85 539.84 815.40 540.99 807.34&#10;  A 2.03 2.03 0.0 0 1 543.00 805.60&#10;  L 558.15 805.60&#10;  A 0.32 0.32 0.0 0 1 558.43 806.07&#10;  Q 553.53 814.84 551.28 824.59&#10;  Q 550.00 830.16 548.69 833.79&#10;  Q 542.62 850.50 538.96 867.93&#10;  Q 538.64 869.42 537.45 871.19&#10;  Q 537.17 871.62 536.66 871.62&#10;  L 520.86 871.65&#10;  A 2.23 2.22 81.3 0 1 518.74 870.09&#10;  C 518.00 867.71 516.93 865.45 516.44 863.04&#10;  Q 514.28 852.57 512.47 847.57&#10;  Q 505.09 827.13 499.82 805.92&#10;  A 0.41 0.41 0.0 0 1 500.22 805.41&#10;  L 514.53 805.51&#10;  A 0.74 0.74 0.0 0 1 515.24 806.05&#10;  L 528.04 852.38&#10;  Z" data-c-fill="000000"/>
<path fill="#000000" d="&#10;  M 99.70 842.76&#10;  Q 101.76 845.35 102.93 848.41&#10;  C 104.40 852.22 105.52 854.39 107.20 857.39&#10;  C 109.64 861.74 110.63 866.51 112.65 871.15&#10;  A 0.64 0.64 0.0 0 1 111.98 872.04&#10;  Q 105.03 871.15 98.08 871.95&#10;  A 2.27 2.27 0.0 0 1 95.64 870.35&#10;  Q 93.12 861.83 87.92 853.79&#10;  C 86.42 851.47 83.75 849.30 82.37 846.24&#10;  Q 82.17 845.80 81.68 845.82&#10;  C 80.11 845.89 79.40 846.88 79.40 848.46&#10;  Q 79.43 860.12 79.27 871.77&#10;  A 0.54 0.54 0.0 0 1 78.73 872.30&#10;  L 65.95 872.22&#10;  A 0.65 0.65 0.0 0 1 65.30 871.57&#10;  L 65.34 806.05&#10;  Q 65.34 805.54 65.85 805.53&#10;  Q 77.90 805.44 89.72 805.50&#10;  C 100.65 805.54 109.16 810.10 109.50 822.28&#10;  Q 109.62 826.50 107.59 831.01&#10;  Q 105.73 835.12 103.17 838.93&#10;  C 102.14 840.47 101.37 840.96 99.82 841.99&#10;  Q 99.34 842.31 99.70 842.76&#10;  Z&#10;  M 78.36 819.32&#10;  L 78.32 833.26&#10;  A 0.26 0.26 0.0 0 0 78.57 833.52&#10;  L 84.70 833.54&#10;  A 9.79 6.11 0.2 0 0 94.52 827.47&#10;  L 94.52 825.23&#10;  A 9.79 6.11 0.2 0 0 84.76 819.08&#10;  L 78.63 819.06&#10;  A 0.26 0.26 0.0 0 0 78.36 819.32&#10;  Z&#10;  M 75.24 832.10&#10;  L 74.79 832.28&#10;  A 0.39 0.39 0.0 0 0 74.93 833.04&#10;  Q 75.94 833.04 75.74 832.35&#10;  A 0.39 0.38 71.3 0 0 75.24 832.10&#10;  Z" data-c-fill="000000"/>
<path fill="#000000" d="&#10;  M 325.72 819.70&#10;  L 312.40 819.52&#10;  A 0.86 0.86 0.0 0 1 311.55 818.66&#10;  L 311.50 806.73&#10;  A 1.13 1.13 0.0 0 1 312.63 805.59&#10;  L 355.89 805.64&#10;  Q 356.54 805.64 356.63 806.27&#10;  Q 357.59 812.71 356.68 819.16&#10;  Q 356.62 819.60 356.18 819.60&#10;  L 342.53 819.68&#10;  A 1.04 1.04 0.0 0 0 341.49 820.72&#10;  L 341.50 870.95&#10;  A 0.70 0.70 0.0 0 1 340.80 871.65&#10;  L 327.39 871.63&#10;  A 0.99 0.99 0.0 0 1 326.40 870.64&#10;  L 326.48 820.47&#10;  A 0.77 0.77 0.0 0 0 325.72 819.70&#10;  Z" data-c-fill="000000"/>
<path fill="#000000" d="&#10;  M 390.55 848.26&#10;  L 390.50 870.46&#10;  Q 390.50 871.66 389.29 871.66&#10;  L 376.43 871.61&#10;  A 0.93 0.93 0.0 0 1 375.50 870.68&#10;  L 375.51 806.00&#10;  A 0.50 0.49 -90.0 0 1 376.00 805.50&#10;  Q 386.09 805.48 396.31 805.48&#10;  C 405.85 805.48 411.02 805.04 416.98 811.29&#10;  C 420.05 814.51 419.45 818.64 419.96 822.67&#10;  C 421.02 831.05 419.08 841.02 410.14 843.81&#10;  A 1.06 1.05 -24.7 0 0 409.56 845.37&#10;  C 411.03 847.78 412.27 849.52 414.41 852.00&#10;  C 417.21 855.23 418.35 857.70 419.59 862.35&#10;  Q 420.76 866.70 423.27 870.36&#10;  A 0.84 0.84 0.0 0 1 422.58 871.67&#10;  L 407.65 871.60&#10;  Q 407.23 871.60 407.09 871.21&#10;  Q 402.78 859.75 396.39 849.36&#10;  C 395.20 847.44 393.21 846.95 391.22 847.42&#10;  A 0.87 0.86 -6.8 0 0 390.55 848.26&#10;  Z&#10;  M 391.28 837.35&#10;  C 394.08 837.56 402.27 837.58 403.16 833.74&#10;  Q 404.71 827.00 403.46 820.66&#10;  A 1.40 1.39 -4.9 0 0 402.13 819.55&#10;  L 391.16 819.26&#10;  A 0.65 0.64 0.9 0 0 390.49 819.90&#10;  L 390.54 836.56&#10;  A 0.79 0.79 0.0 0 0 391.28 837.35&#10;  Z" data-c-fill="000000"/>
<path fill="#000000" d="&#10;  M 593.40 832.35&#10;  L 611.89 832.24&#10;  A 0.67 0.67 0.0 0 1 612.56 832.89&#10;  L 612.81 843.74&#10;  A 0.56 0.56 0.0 0 1 612.25 844.31&#10;  L 593.72 844.32&#10;  A 1.13 1.13 0.0 0 0 592.59 845.54&#10;  L 593.54 857.81&#10;  A 0.52 0.52 0.0 0 0 594.06 858.29&#10;  L 616.19 858.31&#10;  A 2.02 2.01 83.3 0 1 618.15 859.86&#10;  C 618.93 863.11 617.61 867.59 617.62 871.04&#10;  A 0.59 0.58 90.0 0 1 617.04 871.63&#10;  L 579.42 871.61&#10;  Q 578.32 871.61 578.32 870.51&#10;  L 578.33 806.44&#10;  A 0.94 0.94 0.0 0 1 579.27 805.50&#10;  L 617.55 805.49&#10;  Q 618.36 805.49 618.36 806.30&#10;  L 618.40 817.67&#10;  A 1.83 1.83 0.0 0 1 616.57 819.50&#10;  L 593.37 819.47&#10;  A 0.90 0.89 -0.6 0 0 592.47 820.38&#10;  L 592.68 831.65&#10;  A 0.71 0.71 0.0 0 0 593.40 832.35&#10;  Z" data-c-fill="000000"/>
<path fill="#000000" d="&#10;  M 455.56 857.46&#10;  L 453.29 870.12&#10;  A 1.81 1.80 -85.0 0 1 451.53 871.60&#10;  L 438.66 871.66&#10;  A 1.27 1.27 0.0 0 1 437.48 869.93&#10;  Q 438.07 868.46 438.16 866.74&#10;  C 438.45 861.69 439.29 858.19 441.13 852.53&#10;  Q 442.36 848.73 442.95 844.75&#10;  C 443.16 843.35 444.44 841.09 444.87 839.39&#10;  Q 448.84 823.76 453.05 807.04&#10;  A 0.99 0.99 0.0 0 1 454.01 806.29&#10;  L 470.25 806.27&#10;  A 1.39 1.39 0.0 0 1 471.54 807.14&#10;  C 473.98 813.29 475.70 820.93 477.37 826.12&#10;  Q 481.12 837.79 484.69 849.52&#10;  C 486.72 856.21 487.79 863.66 489.57 870.81&#10;  A 1.25 1.25 0.0 0 1 488.10 872.34&#10;  Q 482.37 871.14 476.56 871.95&#10;  A 2.28 2.28 0.0 0 1 474.01 870.15&#10;  L 471.52 858.18&#10;  A 1.74 1.74 0.0 0 0 469.84 856.79&#10;  L 456.55 856.63&#10;  Q 455.70 856.62 455.56 857.46&#10;  Z&#10;  M 457.62 846.45&#10;  Q 457.36 847.55 458.48 847.54&#10;  L 467.75 847.45&#10;  A 0.77 0.77 0.0 0 0 468.49 846.48&#10;  Q 466.46 838.68 464.34 831.24&#10;  C 463.46 828.17 463.62 825.16 463.15 822.06&#10;  Q 462.98 820.98 462.83 822.06&#10;  C 462.37 825.22 462.61 828.13 461.69 831.23&#10;  Q 459.64 838.14 457.62 846.45&#10;  Z" data-c-fill="000000"/>
<path fill="#b45f06" d="&#10;  M 75.24 832.10&#10;  A 0.39 0.38 71.3 0 1 75.74 832.35&#10;  Q 75.94 833.04 74.93 833.04&#10;  A 0.39 0.39 0.0 0 1 74.79 832.28&#10;  L 75.24 832.10&#10;  Z" data-c-fill="efd088"/>
</svg>